<?xml version="1.0" encoding="UTF-8" standalone="no"?>
<svg
   xmlns:dc="http://purl.org/dc/elements/1.1/"
   xmlns:cc="http://creativecommons.org/ns#"
   xmlns:rdf="http://www.w3.org/1999/02/22-rdf-syntax-ns#"
   xmlns:svg="http://www.w3.org/2000/svg"
   xmlns="http://www.w3.org/2000/svg"
   xmlns:sodipodi="http://sodipodi.sourceforge.net/DTD/sodipodi-0.dtd"
   xmlns:inkscape="http://www.inkscape.org/namespaces/inkscape"
   width="24"
   height="24"
   viewBox="0 0 24 24"
   version="1.1"
   id="svg4"
   sodipodi:docname="github.svg"
   inkscape:version="0.92.3 (unknown)">
  <metadata
     id="metadata10">
    <rdf:RDF>
      <cc:Work
         rdf:about="">
        <dc:format>image/svg+xml</dc:format>
        <dc:type
           rdf:resource="http://purl.org/dc/dcmitype/StillImage" />
      </cc:Work>
    </rdf:RDF>
  </metadata>
  <defs
     id="defs8" />
  <sodipodi:namedview
     pagecolor="#ffffff"
     bordercolor="#666666"
     borderopacity="1"
     objecttolerance="10"
     gridtolerance="10"
     guidetolerance="10"
     inkscape:pageopacity="0"
     inkscape:pageshadow="2"
     inkscape:window-width="1366"
     inkscape:window-height="710"
     id="namedview6"
     showgrid="false"
     inkscape:zoom="13.906433"
     inkscape:cx="12.883435"
     inkscape:cy="12.937758"
     inkscape:window-x="0"
     inkscape:window-y="30"
     inkscape:window-maximized="1"
     inkscape:current-layer="svg4" />
  <path
     d="M12 0c-6.626 0-12 5.373-12 12 0 5.302 3.438 9.8 8.207 11.387.599.111.793-.261.793-.577v-2.234c-3.338.726-4.033-1.416-4.033-1.416-.546-1.387-1.333-1.756-1.333-1.756-1.089-.745.083-.729.083-.729 1.205.084 1.839 1.237 1.839 1.237 1.07 1.834 2.807 1.304 3.492.997.107-.775.418-1.305.762-1.604-2.665-.305-5.467-1.334-5.467-5.931 0-1.311.469-2.381 1.236-3.221-.124-.303-.535-1.524.117-3.176 0 0 1.008-.322 3.301 1.23.957-.266 1.983-.399 3.003-.404 1.02.005 2.047.138 3.006.404 2.291-1.552 3.297-1.23 3.297-1.23.653 1.653.242 2.874.118 3.176.77.84 1.235 1.911 1.235 3.221 0 4.609-2.807 5.624-5.479 5.921.43.372.823 1.102.823 2.222v3.293c0 .319.192.694.801.576 4.765-1.589 8.199-6.086 8.199-11.386 0-6.627-5.373-12-12-12z"
     id="path2"
     style="fill:#800080;fill-opacity:1" />
  <path
     style="opacity:1;fill:#fffff8;fill-opacity:1;stroke:#ffffff;stroke-width:0.203;stroke-linecap:round;stroke-linejoin:round;stroke-miterlimit:4;stroke-dasharray:none;stroke-dashoffset:0;stroke-opacity:1;paint-order:normal;"
     d="M 7.666083,23.214021 C 5.8774335,22.470546 4.6219571,21.618029 3.3227013,20.264694 1.674624,18.548018 0.64187481,16.557875 0.18164715,14.211773 -0.04743153,13.043999 -0.042156,10.778175 0.19216129,9.6959764 1.2456681,4.8303391 4.7460361,1.3084099 9.6236445,0.20639841 10.703993,-0.03768774 13.241902,-0.03508377 14.386793,0.21128555 21.454911,1.7322755 25.65224,8.9436794 23.419296,15.72997 c -0.990253,3.009539 -3.313081,5.687947 -6.108174,7.043212 -0.405838,0.19678 -0.972721,0.440358 -1.259738,0.541283 -0.494225,0.173785 -0.535946,0.174263 -0.788136,0.009 l -0.266286,-0.174476 v -1.915978 c 0,-2.195155 -0.0897,-2.823192 -0.497093,-3.480604 l -0.290681,-0.469069 0.721702,-0.128974 c 1.399952,-0.250186 2.368918,-0.68374 3.139926,-1.404928 0.884619,-0.827457 1.333024,-1.86556 1.494667,-3.4603 C 19.71834,10.781095 19.417118,9.4800558 18.696313,8.5350323 18.444652,8.205087 18.440957,8.1774676 18.559652,7.5132892 18.685797,6.8074312 18.602063,5.8443997 18.360143,5.2186884 18.252163,4.9394029 18.228534,4.9306139 17.770373,4.9993193 17.123602,5.0963084 16.390026,5.3832177 15.660561,5.8244876 15.009312,6.2184432 15.07049,6.2138445 13.725776,5.9699214 12.89622,5.8194446 11.052963,5.8491163 9.963064,6.0304914 L 8.9461149,6.1997264 8.3359454,5.8283351 C 7.6066603,5.3844419 6.8738067,5.0968311 6.2235518,4.9993193 5.7745358,4.9319852 5.7403406,4.9433394 5.6461673,5.1910338 5.4001055,5.8382255 5.3151641,6.7665605 5.4362979,7.4847232 5.5524773,8.1735127 5.5483445,8.206482 5.3051752,8.5307459 4.6351321,9.4242417 4.4065186,10.208978 4.4122228,11.595884 c 0.011817,2.873151 1.177044,4.565891 3.6694853,5.330709 0.3635593,0.111561 0.8978393,0.235001 1.1872888,0.274312 l 0.5262719,0.07148 -0.2962187,0.467088 C 9.3361299,17.996368 9.1740668,18.359887 9.1389097,18.547291 9.0652602,18.939876 8.8975633,19.052159 8.1822822,19.187809 7.1768351,19.378488 6.3393609,19.027163 5.7163298,18.153327 4.9933027,17.13924 4.4361076,16.746919 3.7188798,16.746919 c -0.5323925,0 -0.6260182,0.175536 -0.2551626,0.478398 0.7258782,0.592793 1.0654027,0.997456 1.4128629,1.683922 0.2048883,0.404792 0.488969,0.858511 0.6312904,1.008266 0.5608795,0.590173 1.8929626,0.91393 2.9551935,0.718246 l 0.5338983,-0.09835 v 1.302385 c 0,1.230564 -0.012464,1.311115 -0.2260175,1.460694 -0.2947621,0.206459 -0.424616,0.196297 -1.1048618,-0.08645 z"
     id="path834"
     inkscape:connector-curvature="0" />
</svg>
